<?xml version="1.0" standalone="no"?>
<!DOCTYPE svg PUBLIC "-//W3C//DTD SVG 20010904//EN"
 "http://www.w3.org/TR/2001/REC-SVG-20010904/DTD/svg10.dtd">
<svg version="1.0" xmlns="http://www.w3.org/2000/svg"
 width="114.000000pt" height="70.000000pt" viewBox="0 0 591.000000 376.000000"
 preserveAspectRatio="xMidYMid meet">

<g transform="translate(0.000000,376.000000) scale(0.100000,-0.100000)"
fill="#000000" stroke="none">
<path d="M998 2331 l-33 -29 -3 -439 -3 -439 23 -34 c13 -19 34 -37 48 -41 14
-4 146 -7 293 -8 l268 -1 -3 -32 -3 -33 -188 -3 c-172 -2 -188 -4 -185 -20 3
-16 32 -17 398 -17 368 0 395 1 398 18 3 16 -11 17 -187 17 l-191 0 0 35 0 35
270 0 c295 0 312 3 340 56 13 22 15 99 15 458 0 399 -1 434 -18 459 -10 16
-29 32 -43 37 -15 6 -257 10 -594 10 l-570 0 -32 -29z m1193 -30 l24 -19 3
-341 3 -341 -611 0 -610 0 0 335 0 336 25 24 24 25 559 0 c536 0 561 -1 583
-19z m24 -813 c0 -112 55 -103 -606 -103 l-571 0 -19 24 c-14 17 -19 39 -19
87 l0 64 608 -2 607 -3 0 -67z"/>
<path d="M1576 1501 c-23 -25 -17 -52 13 -68 46 -22 84 21 56 63 -19 29 -46
31 -69 5z"/>
<path d="M2520 1825 l0 -395 55 0 55 0 0 395 0 395 -55 0 -55 0 0 -395z"/>
<path d="M2797 2213 c-4 -3 -7 -181 -7 -395 l0 -388 240 0 240 0 0 45 0 45
-177 2 -178 3 -3 348 -2 347 -53 0 c-30 0 -57 -3 -60 -7z"/>
<path d="M3400 1825 l0 -395 240 0 240 0 0 45 0 45 -180 0 -180 0 0 350 0 350
-60 0 -60 0 0 -395z"/>
<path d="M4010 1825 l0 -395 60 0 60 0 0 395 0 395 -60 0 -60 0 0 -395z"/>
<path d="M4521 2198 c-5 -13 -68 -185 -141 -383 -73 -198 -135 -366 -137 -372
-4 -10 12 -13 61 -13 36 0 66 4 66 9 0 6 14 48 31 95 l31 86 162 0 161 0 29
-84 c15 -45 31 -88 35 -95 5 -8 29 -11 68 -9 l60 3 -143 390 -142 390 -66 3
c-61 3 -67 1 -75 -20z m76 -476 c-66 -1 -121 -1 -123 1 -3 3 56 176 108 321
10 27 15 18 73 -145 l63 -174 -121 -3z"/>
</g>
</svg>
